<svg width="120" height="120" viewBox="0 0 120 120" fill="none" xmlns="http://www.w3.org/2000/svg">
<path fill-rule="evenodd" clip-rule="evenodd" d="M78.163 0C90.21 0 96.232 0 102.717 2.05C109.797 4.627 115.373 10.203 117.95 17.283C120 23.767 120 29.791 120 41.837V78.163C120 90.21 120 96.232 117.95 102.717C115.373 109.797 109.797 115.373 102.717 117.949C96.232 120 90.21 120 78.163 120H41.837C29.79 120 23.767 120 17.283 117.949C10.203 115.373 4.627 109.797 2.05 102.717C0 96.232 0 90.21 0 78.163V41.837C0 29.791 0 23.767 2.05 17.283C4.627 10.203 10.203 4.627 17.283 2.05C23.767 0 29.79 0 41.837 0H78.163Z" fill="#030303"/>
<path d="M32.7108 84V39.2H56.0708V46.88H41.4788V58.08H54.1508V65.504H41.4788V84H32.7108ZM63.1653 46.88H53.5012V39.2H81.5333V46.88H71.8693V84H63.1653V46.88Z" fill="#F2F2F2"/>
<path d="M79.6088 74.528H88.8248V84H79.6088V74.528Z" fill="#FF2E00"/>
</svg>
